<svg viewBox="0 0 512 512" xmlns="http://www.w3.org/2000/svg" xmlns:xlink="http://www.w3.org/1999/xlink"><linearGradient id="a" gradientTransform="matrix(1 0 0 -1 0 -15158)" gradientUnits="userSpaceOnUse" x1="0" x2="512" y1="-15414" y2="-15414"><stop offset="0" stop-color="#00f1ff"/><stop offset=".231" stop-color="#00d8ff"/><stop offset=".5138" stop-color="#00c0ff"/><stop offset=".7773" stop-color="#00b2ff"/><stop offset="1" stop-color="#00adff"/></linearGradient><path d="m512 256c0 141.386719-114.613281 256-256 256s-256-114.613281-256-256 114.613281-256 256-256 256 114.613281 256 256zm0 0" fill="url(#a)"/><path d="m411 367.679688c-8.285156 0-15 6.714843-15 15 0 19.320312-6.261719 19.320312-10.003906 19.320312-7.320313 0-14.019532-9.898438-19.910156-29.417969-5.769532-19.109375-10.007813-45.042969-14.316407-75.132812 9.378907-26.765625 17.058594-57.128907 22.972657-90.964844 9.5625-54.699219 10.707031-97.585937 10.753906-99.386719.203125-8.28125-6.34375-15.15625-14.625-15.363281-8.296875-.175781-15.15625 6.34375-15.367188 14.625-.023437.953125-1.621094 55.460937-14.796875 117.964844-8.171875-39.417969-21.933593-72.652344-40.320312-97.050781-24.289063-32.234376-56.539063-49.273438-93.257813-49.273438-36.957031 0-71.402344 19.003906-96.992187 53.515625-24.59375 33.164063-38.136719 77.015625-38.136719 123.484375s13.542969 90.320312 38.136719 123.484375c25.589843 34.511719 60.035156 53.515625 96.992187 53.515625 14.722656 0 28.796875-2.308594 41.832032-6.863281 7.816406-2.734375 11.941406-11.289063 9.210937-19.109375-2.730469-7.820313-11.289063-11.945313-19.109375-9.210938-9.84375 3.4375-20.589844 5.183594-31.933594 5.183594-27.21875 0-53.105468-14.695312-72.894531-41.382812-20.789063-28.03125-32.234375-65.539063-32.234375-105.617188s11.445312-77.585938 32.234375-105.617188c19.785156-26.6875 45.675781-41.382812 72.894531-41.382812 27.320313 0 50.636719 12.558594 69.300782 37.324219 18.929687 25.125 32.320312 62.121093 38.722656 106.988281 1.222656 8.582031 2.386718 16.980469 3.523437 25.15625.789063 5.679688 1.5625 11.246094 2.332031 16.703125-8.90625 24.0625-20.09375 46.820313-34.140624 65.636719-4.957032 6.636718-3.59375 16.035156 3.046874 20.992187 2.691407 2.011719 5.839844 2.980469 8.960938 2.980469 4.570312 0 9.085938-2.082031 12.03125-6.027344 6.632812-8.882812 12.859375-18.707031 18.679688-29.4375 2.316406 12.160156 4.84375 23.210938 7.777343 32.933594 3.789063 12.550781 15.316407 50.75 48.632813 50.75 13.957031 0 25.4375-6.074219 32.332031-17.105469 5.089844-8.148437 7.671875-18.988281 7.671875-32.21875 0-8.28125-6.714844-14.996093-15-14.996093zm0 0" fill="#fff"/></svg>